<svg width="114" height="50" viewBox="0 0 114 50" fill="none" xmlns="http://www.w3.org/2000/svg" xmlns:xlink="http://www.w3.org/1999/xlink">
<path d="M30.001,10.302L30.001,24L36.524,24L36.524,10.302C36.524,7.492 38.371,5.737 41.324,5.737L46,5.737L46,0L40.954,0C34.184,0 30.001,3.98 30.001,10.302Z" fill="#07CCF7"/>
<path d="M9.614,30.584L15,18.389L9.614,18.389L3.751,30.349C3.751,31.287 3.751,35.157 6.917,38.439C10.081,41.603 12.898,42.426 17.704,42.426L17.704,36.68C14.538,36.68 12.428,35.976 11.021,34.57C9.614,33.045 9.614,30.818 9.614,30.584Z" fill="#07CCF7"/>
<path d="M30.492,36.62C28.309,36.423 26.717,35.74 25.45,34.572C24.043,33.047 24.043,30.819 24.043,30.585L24.043,18.39L18.18,18.39L18.18,30.35C18.18,31.288 18.18,35.158 21.346,38.44C24.216,41.31 27.164,42.427 30.492,42.427L36.706,42.427L36.706,18.389L30.492,18.389L30.492,36.62Z" fill="#07CCF7"/>
<path d="M83.291,44.685C80.935,44.505 79.216,43.88 77.848,42.811C76.33,41.416 76.33,39.376 76.33,39.162L76.33,28.001L70,28.001L70,38.947C70,39.806 70,43.348 73.418,46.352C76.516,48.978 79.699,50 83.291,50L90,50L90,28L83.291,28L83.291,44.685Z" transform="rotate(360 80 39)" fill="#07CCF7"/>
<path d="M83.291,28.685C80.935,28.505 79.216,27.88 77.848,26.811C76.33,25.416 76.33,23.376 76.33,23.162L76.33,12.001L70,12.001L70,22.947C70,23.806 70,27.348 73.418,30.352C76.516,32.978 79.699,34 83.291,34L90,34L90,12L83.291,12L83.291,28.685Z" transform="rotate(360 80 23)" fill="#07CCF7"/>
<path d="M66.652,6.389L55.865,6.389L55.865,30.427L62.079,30.427L62.079,12.135L66.183,12.135C68.88,12.135 70.756,14.01 70.756,16.707L70.756,30.427L76.97,30.427L76.97,16.707C76.97,10.375 72.984,6.389 66.652,6.389Z" fill="#07CCF7"/>
<path d="M45.055,18L38.84,18L38.84,40.396C38.84,46.141 42.592,49.776 48.456,49.776L54.201,49.776L54.201,44.031L48.807,44.031C46.696,44.031 45.055,42.271 45.055,40.278L45.055,31.484L54.2,31.484L54.2,25.739L45.055,25.739L45.055,18Z" fill="#07CCF7"/>
<path d="M38.001,10.318L38.001,24.038L44.216,24.038L44.216,10.318C44.216,7.504 45.975,5.746 48.788,5.746L53.244,5.746L53.244,0L48.436,0C41.986,0 38.001,3.986 38.001,10.318Z" transform="rotate(360 45.622 12.019)" fill="#07CCF7"/>
<path d="M66.62,35.24C69.172,35.24 71.24,33.172 71.24,30.62C71.24,28.069 69.172,26 66.62,26C64.069,26 62,28.069 62,30.62C62,33.172 64.069,35.24 66.62,35.24Z" fill="#07CCF7"/>
</svg>
