<svg width="40" height="40" viewBox="0 0 40 40" fill="none" xmlns="http://www.w3.org/2000/svg" xmlns:xlink="http://www.w3.org/1999/xlink">
<path d="M19.64,39C30.686,39 39.64,30.046 39.64,19C39.64,7.954 30.686,-1 19.64,-1C8.594,-1 -0.36,7.954 -0.36,19C-0.36,30.046 8.594,39 19.64,39ZM19.64,21C21.762,21 23.797,20.157 25.297,18.657C26.797,17.157 27.64,15.122 27.64,13C27.64,10.878 26.797,8.843 25.297,7.343C23.797,5.843 21.762,5 19.64,5C17.518,5 15.483,5.843 13.983,7.343C12.483,8.843 11.64,10.878 11.64,13C11.64,15.122 12.483,17.157 13.983,18.657C15.483,20.157 17.518,21 19.64,21ZM33.818,30.092C32.136,32.247 29.984,33.989 27.527,35.186C25.07,36.383 22.371,37.004 19.638,37C16.905,37.003 14.208,36.382 11.751,35.185C9.295,33.988 7.144,32.246 5.462,30.092C6.202,28.108 7.578,26.425 9.374,25.304C12.22,23.494 15.944,23 19.64,23C23.336,23 27.06,23.494 29.906,25.304C31.702,26.425 33.078,28.108 33.818,30.092Z" clip-rule="evenodd" fill-rule="evenodd" fill="#07CCF7"/>
</svg>
