<svg width="24" height="24" viewBox="0 0 24 24" fill="none" xmlns="http://www.w3.org/2000/svg" xmlns:xlink="http://www.w3.org/1999/xlink">
<path d="M15.48,8.359C15.48,11.894 12.615,14.759 9.08,14.759C5.545,14.759 2.68,11.894 2.68,8.359C2.68,4.825 5.545,1.959 9.08,1.959C12.615,1.959 15.48,4.825 15.48,8.359ZM14.137,15.757C12.698,16.743 10.956,17.319 9.08,17.319C4.132,17.319 0.12,13.308 0.12,8.359C0.12,3.411 4.132,-0.601 9.08,-0.601C14.028,-0.601 18.04,3.411 18.04,8.359C18.04,10.508 17.284,12.479 16.023,14.023L22.721,20.72L20.911,22.53L14.137,15.757Z" clip-rule="evenodd" fill-rule="evenodd" fill="#39B4F9"/>
</svg>
