<svg width="20" height="24" viewBox="0 0 20 24" fill="none" xmlns="http://www.w3.org/2000/svg" xmlns:xlink="http://www.w3.org/1999/xlink">
<path d="M3.24,1.983L3.24,19.617L7.141,16.242C8.579,14.999 10.701,14.999 12.139,16.242L16.04,19.617L16.04,1.983L3.24,1.983ZM1.32,-0.601C0.967,-0.601 0.68,-0.311 0.68,0.045L0.68,22.425C0.68,23.529 1.963,24.124 2.793,23.406L8.807,18.204C9.286,17.789 9.994,17.789 10.473,18.204L16.487,23.406C17.317,24.124 18.6,23.529 18.6,22.425L18.6,0.045C18.6,-0.311 18.313,-0.601 17.96,-0.601L1.32,-0.601Z" clip-rule="evenodd" fill-rule="evenodd" fill="#F0EFEB"/>
</svg>
