<svg width="32" height="26" viewBox="0 0 32 26" fill="none" xmlns="http://www.w3.org/2000/svg" xmlns:xlink="http://www.w3.org/1999/xlink">
<path d="M7.047,20.21L7.871,16.924L6.567,15.853C4.775,14.381 3.64,12.158 3.64,9.667C3.64,5.248 7.222,1.667 11.64,1.667L19.64,1.667C24.058,1.667 27.64,5.248 27.64,9.667C27.64,14.085 24.058,17.667 19.64,17.667L11.316,17.667L7.047,20.21ZM0.973,9.667C0.973,12.989 2.493,15.957 4.874,17.913L3.68,22.673C3.549,23.197 3.746,23.748 4.18,24.069C4.614,24.39 5.199,24.418 5.661,24.14L12.05,20.333L19.64,20.333C25.531,20.333 30.307,15.558 30.307,9.667C30.307,3.776 25.531,-1 19.64,-1L11.64,-1C5.749,-1 0.973,3.776 0.973,9.667ZM11.64,8.333L11.64,5.667L8.973,5.667L8.973,8.333L6.307,8.333L6.307,11L8.973,11L8.973,13.667L11.64,13.667L11.64,11L14.307,11L14.307,8.333L11.64,8.333ZM22.307,7C22.307,7.736 21.71,8.333 20.973,8.333C20.237,8.333 19.64,7.736 19.64,7C19.64,6.264 20.237,5.667 20.973,5.667C21.71,5.667 22.307,6.264 22.307,7ZM18.307,11C19.043,11 19.64,10.403 19.64,9.667C19.64,8.93 19.043,8.333 18.307,8.333C17.57,8.333 16.973,8.93 16.973,9.667C16.973,10.403 17.57,11 18.307,11ZM23.64,11C24.376,11 24.973,10.403 24.973,9.667C24.973,8.93 24.376,8.333 23.64,8.333C22.904,8.333 22.307,8.93 22.307,9.667C22.307,10.403 22.904,11 23.64,11ZM20.973,13.667C21.71,13.667 22.307,13.07 22.307,12.333C22.307,11.597 21.71,11 20.973,11C20.237,11 19.64,11.597 19.64,12.333C19.64,13.07 20.237,13.667 20.973,13.667Z" clip-rule="evenodd" fill-rule="evenodd" fill="#F0EFEB"/>
</svg>
