<svg width="28" height="28" viewBox="0 0 28 28" fill="none" xmlns="http://www.w3.org/2000/svg" xmlns:xlink="http://www.w3.org/1999/xlink">
<path d="M24.307,13.46C24.307,19.351 19.531,24.127 13.64,24.127C7.749,24.127 2.973,19.351 2.973,13.46C2.973,7.569 7.749,2.793 13.64,2.793C19.531,2.793 24.307,7.569 24.307,13.46ZM26.973,13.46C26.973,20.824 21.004,26.793 13.64,26.793C6.276,26.793 0.307,20.824 0.307,13.46C0.307,6.096 6.276,0.127 13.64,0.127C21.004,0.127 26.973,6.096 26.973,13.46ZM14.973,5.46L14.973,12.127L18.973,12.127L18.973,14.793L12.307,14.793L12.307,5.46L14.973,5.46Z" clip-rule="evenodd" fill-rule="evenodd" fill="#F0EFEB"/>
</svg>
