<svg width="76" height="74" viewBox="0 0 76 74" fill="none" xmlns="http://www.w3.org/2000/svg" xmlns:xlink="http://www.w3.org/1999/xlink">
<path d="M19.976,36.588L19.976,36.584L29.25,27.324L54.854,1.748L54.867,1.748L56.061,0.556C57.624,-1.005 60.156,-1.004 61.717,0.559L62.906,1.748L62.917,1.748L72,10.831L72,10.848L73.15,11.999C74.711,13.561 74.711,16.092 73.151,17.654L63.983,26.831L37.086,53.758L19.966,53.758L19.966,36.598L19.976,36.588ZM61.698,17.506L64.526,14.678L58.886,9.038L56.058,11.866L61.698,17.506ZM72,65.748L72,30.131L42.766,59.398L40.406,61.758L11.966,61.758L11.966,33.278L14.326,30.918L43.56,1.748L8,1.748C3.582,1.748 0,5.33 0,9.748L0,65.748C0,70.166 3.582,73.748 8,73.748L64,73.748C68.418,73.748 72,70.166 72,65.748Z" clip-rule="evenodd" fill-rule="evenodd" fill="#FFFFFF"/>
</svg>
