<svg width="22" height="32" viewBox="0 0 22 32" fill="none" xmlns="http://www.w3.org/2000/svg" xmlns:xlink="http://www.w3.org/1999/xlink">
<path d="M-0.66,7.879C-0.66,3.461 2.922,-0.121 7.34,-0.121C11.758,-0.121 15.34,3.461 15.34,7.879L15.34,20.679C15.34,23.33 13.191,25.479 10.54,25.479C7.889,25.479 5.74,23.33 5.74,20.679L5.74,6.279L8.94,6.279L8.94,20.679C8.94,21.563 9.656,22.279 10.54,22.279C11.424,22.279 12.14,21.563 12.14,20.679L12.14,7.879C12.14,5.228 9.991,3.079 7.34,3.079C4.689,3.079 2.54,5.228 2.54,7.879L2.54,20.679C2.54,25.097 6.122,28.679 10.54,28.679C14.958,28.679 18.54,25.097 18.54,20.679L18.54,6.279L21.74,6.279L21.74,20.679C21.74,26.865 16.726,31.879 10.54,31.879C4.354,31.879 -0.66,26.865 -0.66,20.679L-0.66,7.879Z" clip-rule="evenodd" fill-rule="evenodd" fill="#A8A69D"/>
</svg>
